<svg width="24" height="24" viewBox="0 0 24 24" fill="none" xmlns="http://www.w3.org/2000/svg">
<path d="M20.8474 8.71307C21.2126 8.34787 21.5022 7.91432 21.6998 7.43718C21.8974 6.96004 21.9991 6.44865 21.999 5.93222C21.999 5.41579 21.8972 4.90442 21.6995 4.42732C21.5019 3.95021 21.2121 3.51671 20.8469 3.15157C20.4817 2.78643 20.0482 2.4968 19.571 2.29921C19.0939 2.10163 18.5825 1.99995 18.0661 2C17.0231 2.00009 16.0229 2.41451 15.2854 3.15207L14.3984 4.03907L14.4364 4.15007C14.8737 5.40095 15.5894 6.53617 16.5294 7.47007C17.4911 8.43776 18.6657 9.16718 19.9594 9.60007L20.8474 8.71307Z" fill="url(#paint0_linear_194_22)"/>
<path d="M14.4396 4L14.4006 4.038L14.4386 4.15C14.8759 5.40087 15.5916 6.53609 16.5316 7.47C17.4933 8.43769 18.6679 9.1671 19.9616 9.6L11.4016 18.16C10.8236 18.737 10.5346 19.026 10.2166 19.274C9.8411 19.5663 9.43507 19.8171 9.00562 20.022C8.64162 20.196 8.25462 20.325 7.47962 20.583L3.39662 21.944C3.20978 22.0066 3.00919 22.0158 2.81738 21.9707C2.62557 21.9256 2.45013 21.828 2.31075 21.6887C2.17137 21.5494 2.07356 21.374 2.02832 21.1823C1.98308 20.9905 1.99218 20.7899 2.05462 20.603L3.41662 16.519C3.67462 15.745 3.80362 15.358 3.97662 14.994C4.18262 14.5633 4.43229 14.1593 4.72562 13.782C4.97362 13.464 5.26262 13.176 5.83962 12.599L14.4396 4Z" fill="#242424"/>
<path d="M5.492 4.045L4.045 5.492C2.682 6.855 2 7.537 2 8.384C2 9.231 2.682 9.914 4.045 11.277L5.603 12.835L5.839 12.599L12.835 5.603L11.277 4.045C9.913 2.682 9.23 2 8.384 2C7.538 2 6.855 2.682 5.492 4.045ZM18.396 11.164L11.4 18.16L11.164 18.396L12.724 19.955C14.086 21.318 14.767 22 15.615 22C16.463 22 17.144 21.318 18.507 19.955L19.954 18.508C21.318 17.145 22 16.463 22 15.616C22 14.768 21.318 14.086 19.955 12.723L18.396 11.164Z" fill="url(#paint1_linear_194_22)"/>
<path d="M20.1085 12.8773L18.9385 14.0473C18.8061 14.1896 18.7342 14.3777 18.7378 14.572C18.7414 14.7663 18.8203 14.9516 18.9578 15.0889C19.0954 15.2262 19.2809 15.3047 19.4752 15.308C19.6695 15.3112 19.8574 15.2389 19.9995 15.1063L21.1495 13.9563C20.8122 13.587 20.4651 13.2279 20.1085 12.8773ZM9.76549 2.61328L8.43849 3.93928C8.36882 4.00895 8.31356 4.09165 8.27586 4.18268C8.23816 4.2737 8.21875 4.37126 8.21875 4.46978C8.21875 4.5683 8.23816 4.66586 8.27586 4.75689C8.31356 4.84791 8.36882 4.93062 8.43849 5.00028C8.50816 5.06995 8.59086 5.12521 8.68189 5.16291C8.77291 5.20062 8.87047 5.22002 8.96899 5.22002C9.06751 5.22002 9.16507 5.20062 9.25609 5.16291C9.34712 5.12521 9.42982 5.06995 9.49949 5.00028L10.8645 3.63628C10.5151 3.27747 10.148 2.93637 9.76449 2.61428" fill="#242424"/>
<defs>
<linearGradient id="paint0_linear_194_22" x1="14" y1="1.5" x2="15" y2="22.5" gradientUnits="userSpaceOnUse">
<stop stop-color="#DF64BE"/>
<stop offset="1" stop-color="#53ACE7"/>
</linearGradient>
<linearGradient id="paint1_linear_194_22" x1="12" y1="2" x2="16" y2="22" gradientUnits="userSpaceOnUse">
<stop stop-color="#DF64BE"/>
<stop offset="1" stop-color="#53ACE7"/>
</linearGradient>
</defs>
</svg>
